M48
;DRILL file {KiCad (5.0.1-3-g963ef8bb5)} date Thursday, December 14, 2023 at 02:08:41 PM
;FORMAT={-:-/ absolute / inch / decimal}
FMAT,2
INCH,TZ
T1C0.0400
T2C0.0450
T3C0.1200
%
G90
G05
M72
T1
X2.9Y-4.3
X2.9Y-4.4
X2.9Y-4.5
X2.9Y-4.6
X2.9Y-4.7
X3.Y-4.3
X3.Y-4.4
X3.Y-4.5
X3.Y-4.6
X3.Y-4.7
X5.5Y-5.9
X5.5Y-6.
X5.6Y-5.9
X5.6Y-6.
X5.7Y-5.9
X5.7Y-6.
X5.8Y-5.9
X5.8Y-6.
X5.9Y-5.9
X5.9Y-6.
X6.Y-5.9
X6.Y-6.
X6.1Y-5.9
X6.1Y-6.
X6.2Y-5.9
X6.2Y-6.
X6.3Y-5.9
X6.3Y-6.
X6.4Y-5.9
X6.4Y-6.
X6.5Y-5.9
X6.5Y-6.
X6.6Y-5.9
X6.6Y-6.
X6.7Y-5.9
X6.7Y-6.
X6.8Y-5.9
X6.8Y-6.
X6.9Y-5.9
X6.9Y-6.
X7.Y-5.9
X7.Y-6.
X7.1Y-5.9
X7.1Y-6.
X7.2Y-5.9
X7.2Y-6.
X7.3Y-5.9
X7.3Y-6.
X7.4Y-5.9
X7.4Y-6.
X7.Y-2.2
X7.Y-2.3
X7.1Y-2.2
X7.1Y-2.3
X7.2Y-2.2
X7.2Y-2.3
X7.3Y-2.2
X7.3Y-2.3
X7.4Y-2.2
X7.4Y-2.3
X3.4Y-4.3
X3.4Y-4.4
X3.4Y-4.5
X3.4Y-4.6
X3.4Y-4.7
X3.5Y-4.3
X3.5Y-4.4
X3.5Y-4.5
X3.5Y-4.6
X3.5Y-4.7
X5.5Y-5.3
X5.5Y-5.4
X5.6Y-5.3
X5.6Y-5.4
X5.7Y-5.3
X5.7Y-5.4
X5.8Y-5.3
X5.8Y-5.4
X5.9Y-5.3
X5.9Y-5.4
X6.Y-5.3
X6.Y-5.4
X6.1Y-5.3
X6.1Y-5.4
X6.2Y-5.3
X6.2Y-5.4
X6.3Y-5.3
X6.3Y-5.4
X6.4Y-5.3
X6.4Y-5.4
X6.5Y-5.3
X6.5Y-5.4
X6.6Y-5.3
X6.6Y-5.4
X6.7Y-5.3
X6.7Y-5.4
X6.8Y-5.3
X6.8Y-5.4
X6.9Y-5.3
X6.9Y-5.4
X7.Y-5.3
X7.Y-5.4
X7.1Y-5.3
X7.1Y-5.4
X7.2Y-5.3
X7.2Y-5.4
X7.3Y-5.3
X7.3Y-5.4
X7.4Y-5.3
X7.4Y-5.4
X4.65Y-5.95
X5.35Y-5.95
X7.Y-2.7
X7.Y-2.8
X7.1Y-2.7
X7.1Y-2.8
X7.2Y-2.7
X7.2Y-2.8
X7.3Y-2.7
X7.3Y-2.8
X7.4Y-2.7
X7.4Y-2.8
T2
X4.8Y-5.3
X3.1Y-2.5
X4.4Y-5.5
X4.6Y-4.9
X4.1Y-3.7
X4.Y-3.5
X6.7Y-2.7
X5.1Y-2.3
X3.4Y-2.4
X3.8Y-2.7
X6.8Y-3.3
X4.6Y-4.2
X7.7Y-5.2
X7.7Y-4.5
X3.7Y-5.8
X4.Y-5.4
X5.6Y-4.3
X3.Y-3.8
X4.4Y-4.9
X4.5Y-4.1
X4.3Y-3.8
X6.7Y-3.4
X6.5Y-2.6
X6.Y-2.4
X3.8Y-3.5
X3.3Y-2.3
X6.4Y-3.2
X7.6Y-2.9
X4.9Y-4.
X5.7Y-3.2
X5.9Y-3.9
X3.7Y-5.5
X3.9Y-3.2
X3.1Y-3.4
X7.7Y-2.5
X7.4Y-4.8
X7.3Y-3.9
X6.5Y-2.5
X4.8Y-2.6
X6.4Y-4.8
X4.6Y-4.4
X5.Y-4.4
X5.2Y-4.2
X5.Y-4.1
X4.2Y-5.9
X5.3Y-5.4
X5.7Y-4.8
X4.5Y-5.6
X7.6Y-4.6
X6.8Y-3.5
X4.5Y-3.
X6.6Y-2.8
X5.1Y-2.6
X3.6Y-2.2
X6.7Y-4.3
X5.9Y-4.
X4.6Y-4.6
X7.4Y-3.8
X3.9Y-5.8
X5.4Y-3.6
X4.5Y-5.
X4.4Y-4.
X4.4Y-4.1
X4.4Y-4.4
X6.2Y-4.8
X7.7Y-3.3
X7.5Y-3.2
X6.6Y-4.6
X4.3Y-3.1
X3.9Y-2.8
X4.1Y-2.7
X4.7Y-2.2
X3.4Y-3.3
X3.6Y-2.5
X6.3Y-3.8
X6.4Y-4.
X5.Y-4.7
X5.4Y-3.3
X3.8Y-5.6
X3.9Y-4.1
X7.1Y-3.2
X5.9Y-2.6
X6.5Y-2.8
X5.3Y-2.6
X6.5Y-4.6
X6.7Y-4.8
X7.7Y-5.4
X5.1Y-5.3
X5.8Y-3.5
X5.9Y-3.5
X3.Y-3.
X4.3Y-5.6
X4.8Y-4.1
X4.1Y-2.2
X6.2Y-2.7
X5.2Y-3.1
X3.3Y-2.8
X6.Y-4.1
X5.6Y-3.6
X5.8Y-4.
X5.4Y-4.6
X7.6Y-5.6
X4.3Y-5.8
X4.1Y-3.4
X6.Y-4.8
X2.9Y-3.9
X2.9Y-5.6
X4.3Y-5.
X7.6Y-2.5
X4.4Y-3.6
X7.2Y-3.4
X4.1Y-2.6
X5.Y-2.7
X3.8Y-3.8
X3.2Y-2.6
X3.1Y-5.3
X6.4Y-3.9
X5.1Y-3.7
X6.1Y-3.8
X3.6Y-5.6
X5.5Y-4.5
X4.1Y-4.5
X4.5Y-2.6
X5.Y-2.3
X3.3Y-3.9
X6.2Y-3.5
X7.1Y-4.5
X7.7Y-2.8
X5.7Y-3.5
X6.Y-3.6
X3.7Y-5.3
X4.6Y-5.2
X4.9Y-5.6
X5.3Y-4.5
X4.9Y-2.4
X6.4Y-3.
X5.9Y-2.8
X3.3Y-5.9
X4.2Y-3.7
X4.9Y-5.
X4.2Y-4.2
X4.8Y-4.7
X6.7Y-3.3
X4.7Y-2.5
X6.1Y-2.7
X3.8Y-3.7
X3.7Y-2.8
X3.1Y-5.6
X3.2Y-5.1
X2.9Y-2.4
X4.4Y-2.7
X4.8Y-2.7
X3.6Y-3.3
X6.8Y-4.7
X7.2Y-4.5
X5.4Y-4.
X5.5Y-4.2
X3.3Y-5.4
X4.1Y-3.9
X2.9Y-3.6
X5.2Y-5.6
X4.2Y-4.5
X4.3Y-4.3
X4.8Y-4.4
X4.8Y-3.4
X7.2Y-4.6
X5.8Y-2.5
X6.4Y-2.9
X5.5Y-3.1
X5.Y-3.4
X5.8Y-4.4
X7.6Y-4.4
X4.5Y-4.6
X5.2Y-5.
X6.8Y-4.6
X4.2Y-4.7
X4.7Y-2.7
X5.6Y-2.2
X3.6Y-3.2
X3.6Y-2.7
X3.1Y-5.
X6.2Y-4.6
X6.4Y-3.3
X3.4Y-5.
X7.6Y-3.1
X4.2Y-4.6
X7.4Y-4.4
X4.5Y-3.1
X5.7Y-3.
X3.3Y-3.3
X7.1Y-3.7
X7.6Y-4.7
X7.5Y-3.7
X7.5Y-3.5
X3.3Y-5.3
X4.8Y-5.5
X7.7Y-3.8
X6.7Y-3.
X6.Y-2.9
X6.4Y-4.6
X6.2Y-4.2
X5.7Y-3.9
X4.3Y-5.3
X4.5Y-3.2
X3.1Y-2.7
X4.8Y-4.9
X6.9Y-3.6
X4.9Y-2.5
X5.3Y-2.2
X4.9Y-2.9
X3.3Y-3.4
X3.4Y-2.8
X3.6Y-4.9
X4.4Y-5.3
X3.1Y-3.6
X4.5Y-5.5
X4.1Y-4.9
X4.2Y-3.5
X4.5Y-3.3
X4.3Y-2.9
X5.7Y-2.6
X3.2Y-3.3
X3.6Y-3.
X7.Y-3.4
X5.6Y-3.3
X4.6Y-4.1
X6.1Y-3.5
X3.6Y-5.4
X3.1Y-3.9
X4.7Y-5.6
X7.6Y-2.6
X7.7Y-3.7
X7.2Y-4.2
X6.4Y-3.1
X6.1Y-2.3
X3.7Y-2.2
X6.8Y-4.
X6.3Y-3.5
X5.2Y-3.8
X5.1Y-4.1
X4.9Y-5.3
X4.7Y-5.
X7.5Y-3.9
X6.6Y-2.9
X5.2Y-2.8
X3.6Y-3.1
X3.7Y-2.9
X6.8Y-3.7
X6.3Y-4.4
X6.1Y-3.3
X3.2Y-5.8
X4.4Y-5.4
X3.9Y-5.
X4.4Y-3.7
X4.3Y-3.4
X7.4Y-3.3
X7.6Y-3.2
X6.6Y-3.5
X4.2Y-2.8
X4.2Y-2.6
X6.1Y-2.4
X3.8Y-3.4
X3.4Y-3.
X6.9Y-4.1
X6.5Y-3.9
X7.7Y-3.
X4.8Y-4.
X5.5Y-4.
X5.Y-3.7
X3.2Y-5.6
X3.9Y-4.3
X7.Y-3.2
X6.4Y-2.4
X5.1Y-2.9
X6.3Y-4.5
X5.3Y-4.2
X4.7Y-4.7
X4.1Y-5.9
X5.2Y-5.3
X5.6Y-4.7
X3.Y-2.9
X4.2Y-5.5
X6.9Y-3.7
X4.3Y-2.3
X6.6Y-2.6
X5.1Y-2.5
X3.5Y-2.3
X6.6Y-4.4
X5.3Y-3.3
X5.1Y-3.8
X5.8Y-3.7
X4.7Y-3.8
X7.4Y-4.2
X3.6Y-5.8
X4.5Y-5.4
X5.4Y-3.5
X3.1Y-3.2
X4.2Y-4.9
X4.Y-4.7
X6.6Y-3.4
X3.9Y-3.1
X6.6Y-3.1
X4.6Y-2.3
X3.5Y-3.2
X3.5Y-2.4
X6.2Y-3.9
X4.6Y-4.
X5.3Y-4.4
X6.Y-3.9
X3.5Y-5.5
X3.9Y-3.7
X7.Y-3.3
X5.9Y-2.5
X6.5Y-2.4
X4.9Y-2.6
X6.4Y-4.5
X5.6Y-3.4
X6.1Y-3.6
X3.8Y-5.2
X4.8Y-5.2
X5.9Y-3.7
X4.2Y-5.7
X4.5Y-3.8
X4.7Y-3.6
X6.7Y-3.8
X4.Y-2.3
X6.3Y-2.8
X4.8Y-2.2
X3.5Y-3.1
X5.1Y-4.4
X4.2Y-5.8
X4.9Y-3.8
X2.9Y-5.5
X4.2Y-5.1
X4.5Y-3.6
X4.5Y-4.5
X7.5Y-4.5
X4.1Y-2.5
X5.5Y-2.2
X3.5Y-3.5
X3.2Y-2.4
X3.1Y-5.2
X6.3Y-3.2
X3.5Y-5.7
X5.5Y-4.8
X6.1Y-4.5
X3.9Y-3.5
X2.9Y-2.8
X4.1Y-4.8
X7.7Y-4.
X4.5Y-2.5
X4.6Y-2.9
X3.4Y-3.4
X6.3Y-3.7
X7.1Y-4.8
X6.Y-4.6
X5.4Y-3.7
X5.4Y-4.1
X4.7Y-5.3
X6.1Y-4.6
X2.9Y-3.4
X4.8Y-5.7
X5.3Y-4.8
X5.4Y-2.4
X6.5Y-2.9
X5.8Y-2.9
X5.Y-3.8
X5.9Y-4.6
X4.7Y-3.3
X7.7Y-5.1
X3.7Y-5.9
X4.5Y-4.3
X4.8Y-5.1
X4.2Y-3.2
X4.9Y-4.7
X6.8Y-4.2
X4.Y-2.5
X6.Y-2.6
X3.7Y-3.9
X3.7Y-2.6
X3.1Y-5.5
X5.3Y-3.8
X3.7Y-5.
X4.4Y-4.3
X4.1Y-2.3
X5.3Y-2.3
X3.6Y-4.
X6.9Y-4.7
X7.3Y-4.5
X3.7Y-5.4
X4.3Y-3.5
X5.8Y-4.6
X5.3Y-5.6
X4.Y-3.4
X4.9Y-4.6
X5.5Y-3.6
X7.5Y-4.
X5.9Y-2.7
X6.3Y-2.2
X5.2Y-2.5
X4.4Y-4.5
X3.Y-3.1
X5.3Y-5.
X6.4Y-3.5
X4.3Y-4.7
X4.6Y-2.4
X6.1Y-3.1
X3.5Y-3.3
X3.7Y-3.
X3.1Y-4.9
X6.8Y-3.9
X6.4Y-3.8
X7.7Y-5.8
X3.3Y-5.1
X3.1Y-3.5
X7.5Y-4.6
X4.2Y-2.5
X5.6Y-3.
X3.4Y-4.
X7.3Y-4.4
X5.6Y-3.8
X3.8Y-5.4
X4.1Y-4.6
X5.Y-5.6
X4.6Y-3.5
X7.6Y-3.9
X6.6Y-2.2
X6.1Y-3.
X3.7Y-2.3
X6.6Y-4.
X5.9Y-4.5
X5.2Y-4.6
X4.2Y-5.4
X4.4Y-4.7
X5.Y-5.
X6.7Y-4.7
X4.8Y-2.4
X5.5Y-2.3
X4.6Y-3.1
X3.3Y-3.8
X3.8Y-2.8
X7.Y-4.5
X7.1Y-4.4
X7.7Y-4.7
X3.3Y-5.
X4.5Y-5.2
X6.Y-4.7
X4.1Y-5.5
X4.5Y-4.7
X4.Y-3.1
X4.9Y-2.3
X3.2Y-4.
X7.Y-3.8
X4.7Y-4.4
X5.2Y-3.2
X4.7Y-4.1
X3.5Y-5.3
X3.Y-2.5
X4.6Y-5.7
X4.5Y-3.4
X4.6Y-3.4
X7.6Y-3.6
X6.3Y-2.6
X6.Y-2.2
X6.9Y-3.9
X6.3Y-3.4
X4.9Y-3.6
X4.8Y-5.4
X3.1Y-2.4
X4.6Y-5.1
X7.6Y-3.
X6.7Y-2.3
X5.6Y-2.7
X3.5Y-2.8
X3.8Y-2.3
X6.9Y-3.8
X6.2Y-4.3
X3.4Y-5.2
X5.2Y-3.4
X5.9Y-3.8
X3.6Y-5.1
X4.4Y-5.2
X5.7Y-4.3
X3.Y-3.3
X2.9Y-5.
X3.9Y-4.9
X4.5Y-4.8
X7.6Y-5.5
X7.4Y-3.2
X7.7Y-3.2
X6.7Y-3.9
X6.7Y-3.7
X3.9Y-2.7
X4.5Y-2.9
X5.7Y-3.1
X3.2Y-3.5
X3.8Y-2.2
X7.1Y-4.6
X5.4Y-4.8
X5.2Y-4.3
X3.2Y-5.5
X3.9Y-4.5
X7.2Y-3.6
X7.Y-4.
X6.2Y-2.4
X5.3Y-2.5
X6.3Y-4.8
X5.9Y-4.7
X5.2Y-4.1
X4.5Y-5.9
X5.3Y-5.3
X4.Y-5.5
X6.8Y-3.6
X4.3Y-3.
X6.7Y-2.6
X5.1Y-2.4
X3.4Y-2.7
X6.7Y-4.6
X5.3Y-4.
X3.5Y-5.8
X4.5Y-5.3
X5.5Y-3.7
X4.Y-4.9
X4.3Y-4.2
X6.6Y-3.8
X6.7Y-3.1
X4.7Y-3.
X3.7Y-3.4
X3.2Y-2.2
X6.3Y-3.3
X6.4Y-3.7
X5.Y-3.3
X4.6Y-3.2
X3.3Y-5.5
X3.9Y-4.6
X2.9Y-3.1
X7.1Y-4.
X6.5Y-2.2
X5.Y-3.1
X6.5Y-4.5
X4.7Y-3.4
X5.5Y-3.8
X5.5Y-4.1
X5.Y-5.3
X6.1Y-4.4
X2.9Y-3.8
X4.1Y-5.7
X4.7Y-3.5
X7.7Y-3.5
X4.1Y-3.
X6.2Y-2.9
X5.3Y-3.1
X3.4Y-2.6
X5.Y-3.6
X5.8Y-4.5
X4.8Y-4.2
X5.5Y-4.4
X4.1Y-5.8
X2.9Y-5.7
X4.1Y-5.1
X4.5Y-3.5
X4.5Y-4.4
X7.5Y-4.8
X4.3Y-2.8
X5.4Y-2.3
X3.6Y-3.6
X3.2Y-2.8
X3.1Y-5.4
X6.2Y-3.3
X3.4Y-5.7
X5.4Y-4.7
X3.9Y-3.6
X7.6Y-4.
X4.5Y-2.4
X5.6Y-2.5
X3.5Y-3.8
X6.5Y-4.4
X7.Y-4.7
X4.6Y-5.4
X4.7Y-5.7
X4.2Y-4.3
X4.Y-3.8
X5.2Y-4.7
X4.9Y-2.2
X6.2Y-3.
X5.9Y-2.3
X3.2Y-5.9
X4.4Y-3.2
X3.1Y-3.1
X4.7Y-5.1
X4.4Y-4.2
X4.2Y-4.8
X4.8Y-4.8
X6.8Y-3.8
X4.Y-2.6
X6.1Y-2.6
X3.8Y-3.3
X3.8Y-2.6
X3.1Y-5.7
X4.8Y-3.9
X3.8Y-4.9
X3.1Y-3.7
X7.4Y-3.7
X4.2Y-2.2
X5.3Y-3.
X3.5Y-4.
X6.8Y-4.8
X7.3Y-4.8
X3.7Y-5.2
X4.2Y-3.4
X5.9Y-3.4
X5.8Y-3.4
X5.2Y-5.7
X4.8Y-4.5
X5.5Y-3.5
X5.4Y-2.6
X6.2Y-2.3
X5.3Y-2.7
X6.6Y-3.7
X5.9Y-4.8
X4.8Y-3.5
X3.6Y-5.9
X4.5Y-4.
X5.2Y-5.1
X6.5Y-3.7
X4.6Y-2.8
X5.7Y-2.4
X3.4Y-3.7
X3.7Y-2.7
X3.1Y-5.1
X7.Y-4.3
X6.3Y-3.9
X5.Y-4.
X7.6Y-4.8
X3.7Y-5.1
X7.1Y-4.7
X7.4Y-4.5
X4.3Y-2.6
X5.7Y-2.9
X3.8Y-3.2
X6.9Y-4.6
X7.2Y-4.3
X5.8Y-4.1
X5.4Y-4.4
X5.3Y-3.2
X3.8Y-5.3
X4.3Y-4.1
X5.7Y-4.6
X3.Y-2.6
X5.1Y-5.5
X4.7Y-3.7
X3.9Y-2.2
X6.2Y-3.1
X6.Y-3.
X5.9Y-4.1
X4.6Y-4.8
X4.1Y-5.4
X4.Y-4.
X2.9Y-3.
X5.1Y-4.9
X6.6Y-4.8
X5.5Y-2.6
X6.Y-3.1
X4.7Y-3.1
X3.4Y-3.6
X3.8Y-3.1
X5.3Y-3.4
X5.8Y-3.9
X3.8Y-5.1
X4.1Y-5.2
X5.1Y-4.8
X3.1Y-4.
X4.3Y-3.9
X7.6Y-5.3
X7.6Y-3.3
X4.1Y-3.1
X4.9Y-3.
X3.2Y-3.2
X7.Y-3.6
X4.8Y-4.6
X5.3Y-4.3
X3.6Y-5.3
X7.6Y-5.8
X5.Y-5.7
X4.6Y-3.8
X7.7Y-3.6
X6.3Y-2.5
X6.1Y-2.2
X6.6Y-3.2
X6.3Y-4.6
X5.8Y-4.8
X7.7Y-4.9
X7.7Y-5.7
X4.7Y-5.4
X4.2Y-3.9
X5.Y-5.1
X7.3Y-3.6
X6.7Y-2.8
X5.4Y-3.
X5.7Y-2.8
X3.2Y-2.3
X3.6Y-2.9
X6.2Y-3.7
X6.2Y-4.5
X7.4Y-3.4
X3.5Y-5.
X3.9Y-5.3
X5.4Y-3.8
X5.7Y-4.4
X3.9Y-5.1
X7.7Y-3.1
X4.3Y-3.7
X4.3Y-3.2
X6.9Y-3.5
X6.9Y-4.4
X4.4Y-2.5
X4.6Y-3.
X3.2Y-3.6
X3.3Y-3.
X3.2Y-5.7
X3.9Y-4.2
X2.9Y-2.7
X3.1Y-2.2
X7.Y-3.7
X6.2Y-2.8
X4.7Y-2.3
X6.6Y-3.3
X6.2Y-4.7
X4.8Y-3.2
X5.6Y-4.6
X4.Y-5.9
X5.2Y-5.4
X2.9Y-3.7
X4.1Y-5.6
X4.2Y-3.
X6.7Y-2.5
X5.Y-2.5
X3.5Y-2.6
X6.6Y-4.5
X5.2Y-4.
X5.1Y-3.6
X6.Y-3.2
X3.4Y-5.8
X4.2Y-5.2
X4.1Y-5.
X4.2Y-4.1
X6.6Y-3.6
X6.4Y-2.5
X5.1Y-2.2
X3.7Y-3.8
X3.2Y-2.9
X6.4Y-4.2
X4.6Y-4.3
X3.4Y-5.6
X3.9Y-4.8
X6.8Y-3.4
X7.3Y-3.3
X6.4Y-2.3
X5.1Y-3.1
X6.5Y-4.8
X4.7Y-4.6
X5.4Y-3.9
X5.1Y-5.2
X4.9Y-3.2
X6.Y-4.3
X4.3Y-5.5
X4.5Y-2.2
X6.3Y-2.3
X5.Y-2.4
X3.4Y-2.5
X7.1Y-3.6
X7.6Y-5.2
X5.4Y-4.3
X4.5Y-5.8
X3.Y-2.7
X2.9Y-5.3
X4.3Y-4.9
X4.Y-4.8
X4.Y-3.7
X7.4Y-4.7
X3.9Y-2.5
X4.3Y-2.4
X5.5Y-3.
X3.6Y-3.7
X3.2Y-3.1
X3.Y-5.3
X6.3Y-4.
X6.1Y-4.
X3.6Y-5.5
X5.7Y-4.2
X3.9Y-3.4
X3.Y-3.7
X3.9Y-5.6
X7.7Y-3.9
X7.2Y-3.7
X3.9Y-2.3
X5.8Y-2.4
X5.7Y-2.7
X3.4Y-3.9
X7.1Y-4.3
X6.4Y-4.3
X7.3Y-4.2
X5.Y-5.4
X4.6Y-5.6
X7.7Y-2.6
X4.7Y-4.8
X5.3Y-4.7
X7.7Y-4.1
X4.8Y-2.3
X6.2Y-2.2
X6.Y-2.8
X3.3Y-2.5
X6.Y-3.4
X5.8Y-4.7
X4.9Y-3.7
X7.6Y-5.7
X3.1Y-5.8
X4.4Y-3.3
X4.6Y-5.
X4.4Y-4.6
X4.7Y-4.5
X4.Y-2.4
X5.2Y-2.3
X3.6Y-3.9
X3.8Y-2.5
X3.Y-5.6
X5.2Y-3.9
X4.7Y-3.2
X7.6Y-5.
X3.4Y-4.9
X7.5Y-3.8
X4.4Y-2.4
X5.2Y-3.
X3.5Y-3.7
X6.2Y-3.4
X7.2Y-4.7
X5.1Y-4.6
X3.2Y-5.3
X5.8Y-3.8
X3.Y-2.4
X4.9Y-5.5
X5.5Y-3.4
X7.4Y-4.1
X5.4Y-2.5
X6.3Y-3.
X5.2Y-2.6
X3.5Y-5.9
X4.3Y-3.3
X6.1Y-4.3
X3.Y-3.5
X4.9Y-4.9
X6.4Y-3.6
X7.6Y-4.2
X7.2Y-3.8
X4.6Y-2.6
X5.7Y-2.2
X5.4Y-2.2
X3.5Y-3.6
X3.4Y-2.3
X3.Y-5.
X6.5Y-3.5
X7.7Y-2.9
X5.6Y-3.2
X5.9Y-3.3
X3.7Y-4.9
X5.4Y-3.4
X3.Y-4.
X7.6Y-3.7
X4.Y-2.9
X4.1Y-2.9
X4.4Y-3.1
X5.5Y-2.9
X3.3Y-4.
X6.8Y-4.5
X7.3Y-4.3
X5.1Y-3.2
X5.2Y-4.4
X3.5Y-5.2
X4.1Y-4.3
X5.6Y-4.5
X4.7Y-5.5
X4.6Y-3.6
X4.9Y-4.4
X4.8Y-3.8
X3.9Y-2.9
X6.3Y-3.1
X6.1Y-2.9
X7.7Y-4.4
X7.5Y-3.4
X4.3Y-5.2
X4.Y-3.2
X4.7Y-4.9
X6.7Y-4.2
X4.Y-3.6
X5.5Y-2.5
X5.1Y-2.8
X3.4Y-3.5
X3.5Y-2.5
X6.2Y-4.
X3.8Y-5.
X4.1Y-4.2
X7.5Y-4.4
X4.Y-2.7
X4.8Y-3.
X3.2Y-3.9
X3.5Y-5.4
X3.1Y-2.9
X5.2Y-5.5
X7.1Y-4.2
X6.3Y-2.4
X6.Y-2.3
X7.3Y-4.1
X6.3Y-4.2
X6.5Y-4.1
X5.5Y-3.3
X5.2Y-3.5
X4.6Y-5.3
X4.1Y-3.2
X2.9Y-3.3
X7.6Y-5.4
X5.2Y-4.9
X6.7Y-2.9
X5.4Y-2.7
X5.6Y-2.9
X3.2Y-3.
X3.3Y-3.1
X5.1Y-3.5
X6.1Y-3.2
X3.6Y-5.
X3.9Y-5.2
X3.9Y-5.7
X5.1Y-5.1
X4.4Y-3.5
X4.2Y-3.3
X6.8Y-4.3
X4.5Y-2.7
X4.6Y-2.2
X3.2Y-3.4
X3.3Y-2.2
X5.1Y-3.9
X7.7Y-5.
X3.7Y-5.6
X3.9Y-3.9
X3.1Y-2.3
X7.6Y-3.4
X7.3Y-3.2
X6.9Y-3.4
X7.1Y-3.8
X6.2Y-2.6
X5.9Y-2.2
X6.7Y-4.
X6.5Y-4.2
X5.3Y-4.1
X4.4Y-5.9
X4.9Y-5.2
X4.8Y-3.3
X4.Y-5.7
X4.2Y-3.6
X4.2Y-2.7
X6.7Y-2.4
X5.1Y-2.7
X3.8Y-2.9
X6.8Y-3.2
X5.3Y-3.9
X3.8Y-5.8
X4.Y-5.2
X3.1Y-2.8
X4.Y-5.1
X4.1Y-3.6
X6.7Y-3.6
X6.5Y-2.7
X5.8Y-3.1
X3.7Y-3.6
X3.5Y-2.9
X3.Y-5.2
X6.9Y-4.2
X6.7Y-4.5
X4.6Y-4.5
X6.Y-4.
X3.3Y-5.7
X6.1Y-4.8
X3.9Y-3.3
X3.1Y-3.8
X7.3Y-4.
X3.9Y-3.
X6.4Y-2.8
X4.8Y-2.5
X7.Y-4.4
X6.4Y-4.7
X7.7Y-5.5
X4.9Y-4.1
X3.1Y-5.9
X4.7Y-5.2
X4.Y-5.6
X4.Y-3.
X6.4Y-2.2
X5.Y-2.8
X3.6Y-2.8
X7.1Y-3.5
X6.1Y-3.4
X5.9Y-4.2
X5.6Y-3.7
X4.8Y-3.6
X4.6Y-3.7
X4.Y-5.8
X2.9Y-5.2
X4.Y-5.
X7.2Y-3.5
X4.4Y-4.8
X4.Y-4.6
X3.9Y-2.6
X4.3Y-2.2
X5.3Y-2.8
X3.7Y-4.
X3.2Y-2.7
X6.5Y-3.3
X5.Y-4.3
X7.7Y-5.3
X7.6Y-4.9
X3.3Y-5.6
X5.6Y-4.1
X3.9Y-3.8
X3.9Y-5.5
X4.1Y-4.7
X7.3Y-3.8
X5.8Y-2.8
X4.7Y-2.4
X4.6Y-2.7
X3.6Y-3.5
X6.5Y-4.3
X7.2Y-4.1
X5.7Y-3.3
X5.2Y-5.2
X3.Y-2.8
X4.3Y-5.7
X4.6Y-4.7
X5.2Y-4.8
X5.4Y-2.8
X6.4Y-2.7
X5.9Y-2.9
X3.3Y-2.6
X7.6Y-2.7
X5.1Y-4.3
X5.5Y-4.7
X4.9Y-3.9
X5.3Y-3.6
X5.1Y-4.5
X7.7Y-4.6
X3.Y-5.8
X4.Y-4.2
X6.Y-4.4
X3.Y-3.6
X2.9Y-4.9
X4.3Y-5.1
X4.4Y-3.4
X4.Y-2.8
X5.2Y-2.7
X3.3Y-3.7
X3.8Y-2.4
X3.Y-5.5
X5.6Y-3.5
X4.6Y-3.3
X6.1Y-4.1
X6.Y-4.2
X3.6Y-5.7
X3.Y-3.2
X7.4Y-3.9
X4.3Y-2.5
X4.4Y-2.8
X5.3Y-2.9
X3.7Y-3.2
X7.Y-4.2
X6.6Y-4.7
X6.2Y-3.8
X7.3Y-4.7
X7.6Y-2.8
X5.Y-4.5
X5.Y-3.9
X5.Y-4.8
X3.2Y-5.2
X5.8Y-3.6
X4.9Y-5.7
X5.3Y-4.6
X7.5Y-4.1
X5.5Y-2.7
X6.5Y-2.3
X5.8Y-3.
X5.9Y-3.2
X3.4Y-5.9
X4.3Y-4.
X4.9Y-5.1
X6.3Y-4.7
X4.3Y-4.4
X4.9Y-4.5
X7.1Y-3.9
X4.8Y-3.1
X5.6Y-2.3
X3.8Y-3.9
X3.5Y-2.2
X3.Y-4.9
X6.4Y-3.4
X3.2Y-5.
X6.Y-4.5
X7.2Y-3.2
X4.3Y-2.7
X5.7Y-2.5
X3.3Y-3.2
X6.9Y-4.5
X7.2Y-4.4
X3.3Y-5.2
X4.Y-4.4
X2.9Y-2.9
X5.3Y-5.5
X4.2Y-4.4
X4.8Y-4.3
X4.7Y-3.9
X5.9Y-2.4
X6.6Y-3.
X5.8Y-2.2
X5.6Y-4.2
X5.3Y-3.7
X7.6Y-4.3
X4.Y-5.3
X4.Y-4.3
X2.9Y-4.
X5.3Y-4.9
X7.6Y-2.4
X7.3Y-3.7
X6.6Y-4.1
X4.3Y-4.5
X5.5Y-2.4
X5.2Y-2.4
X3.6Y-3.8
X3.6Y-2.6
X6.5Y-3.4
X5.1Y-3.4
X6.Y-3.3
X3.5Y-4.9
X4.Y-4.1
X7.4Y-4.3
X4.1Y-2.8
X6.Y-2.5
X3.5Y-3.9
X5.3Y-3.5
X3.4Y-5.4
X5.Y-5.5
X7.Y-4.1
X7.2Y-3.3
X6.5Y-3.1
X6.Y-2.7
X6.2Y-3.2
X6.2Y-4.1
X6.3Y-4.3
X4.3Y-5.4
X4.Y-3.3
X5.Y-4.9
X4.5Y-3.9
X7.7Y-4.2
X4.8Y-2.8
X5.5Y-2.8
X5.9Y-3.1
X3.3Y-3.5
X3.4Y-3.1
X6.5Y-3.8
X5.Y-3.2
X7.4Y-3.6
X3.5Y-5.1
X3.9Y-5.4
X2.9Y-2.5
X5.1Y-5.7
X4.4Y-5.
X4.5Y-3.7
X6.9Y-4.3
X4.4Y-2.9
X5.2Y-2.9
X3.2Y-3.8
X3.8Y-3.
X6.7Y-3.2
X7.7Y-5.6
X6.1Y-3.9
X3.8Y-5.5
X3.9Y-4.4
X3.1Y-3.3
X7.7Y-3.4
X7.6Y-3.8
X7.Y-3.9
X6.2Y-2.5
X5.8Y-2.3
X3.5Y-3.
X6.9Y-3.3
X6.4Y-4.1
X4.8Y-3.7
X5.2Y-3.3
X5.Y-4.2
X5.8Y-4.3
X3.9Y-5.9
X4.9Y-5.4
X4.4Y-5.7
X4.4Y-2.2
X6.6Y-2.5
X5.Y-2.9
X3.3Y-2.9
X3.7Y-2.5
X6.9Y-3.2
X7.1Y-3.4
X4.6Y-3.9
X5.7Y-3.8
X3.3Y-5.8
X4.1Y-5.3
X4.4Y-5.1
X4.1Y-3.5
X6.7Y-3.5
X6.4Y-2.6
X5.4Y-2.9
X3.8Y-3.6
X3.4Y-2.2
X6.8Y-4.1
X4.9Y-3.3
X3.7Y-5.7
X3.9Y-4.
X7.5Y-4.7
X7.2Y-4.
X6.3Y-2.9
X4.9Y-2.7
X6.5Y-4.7
X4.7Y-4.3
X5.7Y-4.
X4.3Y-5.9
X5.3Y-5.2
X5.7Y-4.5
X3.1Y-2.6
X4.5Y-5.7
X4.Y-2.2
X6.6Y-2.4
X5.Y-2.6
X3.6Y-2.4
X6.6Y-4.3
X7.7Y-2.7
X5.7Y-3.6
X5.4Y-4.5
X7.6Y-4.5
X4.4Y-5.8
X3.Y-3.4
X2.9Y-5.4
X4.5Y-5.1
X4.5Y-4.2
X4.1Y-3.8
X7.3Y-3.4
X6.6Y-4.2
X3.9Y-2.4
X4.2Y-2.3
X4.8Y-2.9
X3.7Y-3.7
X3.4Y-2.9
X6.5Y-4.
X5.7Y-3.7
X5.1Y-4.
X5.7Y-4.1
X5.7Y-3.4
X6.Y-3.8
X3.8Y-5.7
X5.6Y-4.4
X4.9Y-3.4
X3.9Y-4.7
X3.Y-3.9
X4.3Y-3.6
X7.5Y-4.2
X7.5Y-3.3
X7.2Y-3.9
X4.2Y-2.4
X5.8Y-2.6
X4.9Y-3.1
X4.7Y-2.8
X3.5Y-3.4
X3.Y-5.4
X7.Y-4.6
X6.4Y-4.4
X5.1Y-3.3
X5.1Y-4.2
X5.Y-5.2
X4.2Y-5.6
X4.9Y-4.2
X4.2Y-2.9
X6.7Y-2.2
X6.1Y-2.5
X3.3Y-2.4
X5.5Y-4.6
X5.8Y-3.3
X5.4Y-4.2
X2.9Y-5.8
X4.Y-3.9
X6.1Y-4.7
X2.9Y-5.1
X4.2Y-5.
X7.Y-4.8
X4.4Y-3.8
X6.5Y-3.6
X7.4Y-4.
X4.1Y-2.4
X4.2Y-3.1
X5.Y-3.
X3.4Y-3.8
X3.2Y-2.5
X3.Y-5.7
X5.5Y-3.2
X3.5Y-5.6
X5.6Y-4.8
X4.4Y-2.6
X5.Y-2.2
X3.7Y-3.3
X6.7Y-4.4
X6.2Y-3.6
X7.2Y-4.8
X7.4Y-4.6
X3.2Y-5.4
X5.7Y-4.7
X5.9Y-3.6
X3.1Y-3.
X4.8Y-5.6
X7.6Y-5.1
X5.2Y-4.5
X5.6Y-3.1
X6.5Y-3.
X5.8Y-2.7
X6.1Y-4.2
X5.2Y-3.6
X3.8Y-5.9
X4.2Y-4.
X2.9Y-3.2
X4.8Y-5.
X7.7Y-2.4
X4.1Y-3.3
X4.9Y-4.8
X7.3Y-3.5
X6.6Y-3.9
X4.7Y-2.6
X5.6Y-2.8
X3.7Y-3.5
X3.7Y-2.4
X3.Y-5.1
X5.Y-3.5
X6.Y-3.7
X3.2Y-4.9
X4.4Y-3.
X5.6Y-2.4
X3.8Y-4.
X6.9Y-4.8
X7.3Y-4.6
X5.5Y-3.9
X6.1Y-3.7
X5.9Y-4.4
X3.4Y-5.3
X4.2Y-3.8
X5.3Y-5.7
X4.3Y-4.6
X4.9Y-4.3
X4.9Y-3.5
X4.9Y-2.8
X6.6Y-2.7
X5.4Y-3.1
X7.7Y-4.3
X4.Y-4.5
X5.3Y-5.1
X6.7Y-4.1
X4.3Y-4.8
X7.6Y-4.1
X4.6Y-2.5
X5.3Y-2.4
X3.6Y-3.4
X3.7Y-3.1
X6.5Y-3.2
X4.7Y-4.
X7.5Y-3.6
X3.3Y-4.9
X2.9Y-2.6
X4.1Y-4.1
X7.5Y-4.3
X4.5Y-2.8
X5.7Y-2.3
X3.4Y-3.2
X7.Y-3.5
X5.4Y-3.2
X5.8Y-3.2
X7.7Y-4.8
X3.6Y-5.2
X5.8Y-4.2
X2.9Y-3.5
X5.1Y-5.6
X7.1Y-4.1
X6.6Y-2.3
X6.1Y-2.8
X6.3Y-4.1
X6.2Y-4.4
X5.1Y-4.7
X5.Y-4.6
X5.9Y-4.3
X4.2Y-5.3
X4.1Y-4.
X5.1Y-5.
X4.4Y-2.3
X4.7Y-2.9
X5.2Y-2.2
X5.6Y-2.6
X3.3Y-3.6
X3.3Y-2.7
X5.6Y-3.9
X3.4Y-5.1
X5.1Y-5.4
X4.4Y-5.6
X4.5Y-4.9
X4.1Y-4.4
X4.4Y-3.9
X6.8Y-4.4
X4.5Y-2.3
X5.1Y-3.
X3.2Y-3.7
X3.6Y-2.3
X6.Y-3.5
X4.7Y-4.2
X7.4Y-3.5
X3.4Y-5.5
X4.6Y-5.5
X7.6Y-3.5
X7.1Y-3.3
X6.3Y-2.7
X5.9Y-3.
X3.5Y-2.7
X6.9Y-4.
X6.3Y-3.6
X5.5Y-4.3
X5.6Y-4.
X5.2Y-3.7
T3
X7.7Y-6.
X2.9Y-6.
X2.9Y-2.2
X7.7Y-2.2
T0
M30
